<svg width="1200" height="630" viewBox="0 0 1200 630" fill="none" xmlns="http://www.w3.org/2000/svg">
  <defs>
    <linearGradient id="bg" x1="0" y1="0" x2="1200" y2="630" gradientUnits="userSpaceOnUse">
      <stop stop-color="#0b0d12"/>
      <stop offset="1" stop-color="#0e1119"/>
    </linearGradient>
    <linearGradient id="brand" x1="80" y1="360" x2="620" y2="200" gradientUnits="userSpaceOnUse">
      <stop stop-color="#2f6bff"/>
      <stop offset="1" stop-color="#7c5cff"/>
    </linearGradient>
    <radialGradient id="glow" cx="0" cy="0" r="1" gradientUnits="userSpaceOnUse" gradientTransform="translate(980 90) rotate(120) scale(520)">
      <stop stop-color="#7c5cff" stop-opacity="0.45"/>
      <stop offset="1" stop-color="#7c5cff" stop-opacity="0"/>
    </radialGradient>
    <radialGradient id="glow2" cx="0" cy="0" r="1" gradientUnits="userSpaceOnUse" gradientTransform="translate(120 120) rotate(60) scale(460)">
      <stop stop-color="#2f6bff" stop-opacity="0.4"/>
      <stop offset="1" stop-color="#2f6bff" stop-opacity="0"/>
    </radialGradient>
    <pattern id="grid" width="48" height="48" patternUnits="userSpaceOnUse">
      <path d="M48 0 L0 0 0 48" fill="none" stroke="#ffffff" stroke-opacity="0.04" stroke-width="1"/>
    </pattern>
  </defs>

  <rect width="1200" height="630" fill="url(#bg)"/>
  <rect width="1200" height="630" fill="url(#grid)"/>
  <rect width="1200" height="630" fill="url(#glow)"/>
  <rect width="1200" height="630" fill="url(#glow2)"/>

  <!-- logo lockup -->
  <g transform="translate(80,74)">
    <rect x="0" y="20" width="6" height="12" rx="2" fill="url(#brand)" opacity="0.55"/>
    <rect x="10.5" y="10" width="6" height="22" rx="2" fill="url(#brand)" opacity="0.8"/>
    <rect x="21" y="0" width="6" height="32" rx="2" fill="url(#brand)"/>
    <path d="M1 22 L13 12 L22 15 L38 -3" stroke="#e7e9ee" stroke-width="3" stroke-linecap="round" stroke-linejoin="round"/>
    <text x="54" y="26" font-family="Inter, system-ui, sans-serif" font-size="30" font-weight="700" letter-spacing="-0.5" fill="#e7e9ee">Ad<tspan fill="#7c5cff">-Ascent</tspan></text>
  </g>

  <!-- eyebrow -->
  <text x="80" y="252" font-family="Inter, system-ui, sans-serif" font-size="24" font-weight="600" letter-spacing="1" fill="#2f6bff">GOOGLE ADS FOR HVAC COMPANIES</text>

  <!-- headline -->
  <text font-family="Inter, system-ui, sans-serif" font-size="66" font-weight="800" letter-spacing="-2" fill="#e7e9ee">
    <tspan x="80" y="330">More Qualified Leads.</tspan>
    <tspan x="80" y="404">More <tspan fill="url(#brand)">Booked Jobs.</tspan></tspan>
  </text>

  <!-- subhead -->
  <text x="80" y="470" font-family="Inter, system-ui, sans-serif" font-size="27" font-weight="400" fill="#9aa3b2">Turn high-intent Google searches into booked jobs — not just clicks.</text>

  <!-- mini chart card -->
  <g transform="translate(820,300)">
    <rect x="0" y="0" width="300" height="210" rx="18" fill="#14171f" stroke="#ffffff" stroke-opacity="0.09"/>
    <text x="24" y="42" font-family="Inter, system-ui, sans-serif" font-size="16" fill="#9aa3b2">Booked Jobs</text>
    <text x="24" y="78" font-family="Inter, system-ui, sans-serif" font-size="40" font-weight="700" fill="#e7e9ee">214</text>
    <text x="120" y="76" font-family="Inter, system-ui, sans-serif" font-size="18" font-weight="600" fill="#22c55e">▲ 42%</text>
    <polyline points="24,168 74,150 124,156 174,120 224,128 276,72" fill="none" stroke="url(#brand)" stroke-width="4" stroke-linecap="round" stroke-linejoin="round"/>
    <circle cx="276" cy="72" r="6" fill="#7c5cff"/>
  </g>

  <text x="80" y="560" font-family="Inter, system-ui, sans-serif" font-size="20" font-weight="500" fill="#55617a">ad-ascent.com</text>
</svg>
